<svg xmlns="http://www.w3.org/2000/svg" viewBox="0 0 1200 137.917"><defs><style>.a{fill:#fecd1a;}.b{fill:#30febe;}</style></defs><g transform="translate(-360 -942.083)"><g transform="translate(649 980.111)"><path class="a" d="M18.39,8.146a2.309,2.309,0,0,1,2.294,2.3,2.317,2.317,0,1,1-4.633,0A2.319,2.319,0,0,1,18.39,8.146Z" transform="translate(-6.555)"/><path class="a" d="M10.149,29.845,11.3,27.99a.743.743,0,0,0-1.261-.784L8.9,29.039a6.2,6.2,0,1,0,1.248.806ZM6.172,39.4A4.8,4.8,0,1,1,8.16,30.231l-2.5,4.021a.742.742,0,1,0,1.261.783L9.4,31.053A4.778,4.778,0,0,1,6.172,39.4Z" transform="translate(0 -7.641)"/><path class="a" d="M35.585,29.375a6.194,6.194,0,1,0,6.172,6.173A6.2,6.2,0,0,0,35.585,29.375Zm0,10.995a4.8,4.8,0,1,1,4.784-4.822A4.832,4.832,0,0,1,35.585,40.37Z" transform="translate(-11.994 -8.67)"/><path class="a" d="M36.013,14.283a1.059,1.059,0,0,1,.014,1.505L35.041,16.8a1.063,1.063,0,0,1-1.5.017L30.1,13.451a1.067,1.067,0,0,1-.014-1.507l.988-1.006a1.066,1.066,0,0,1,1.506-.018Z" transform="translate(-12.164 -1.009)"/><g transform="translate(6.218 11.671)"><path class="a" d="M23.335,17.107l-2.4-2.376a1.792,1.792,0,0,0-1.456-.618,2.1,2.1,0,0,0-1.544.927L15.376,19.01H11.537a.913.913,0,1,0,0,1.811h4.458a1.164,1.164,0,0,0,.97-.574l1.5-2.383.5-.757Z" transform="translate(-10.511 -14.105)"/><path class="a" d="M30.8,22.171l-1.748-1.733-5.619.012,3.132,3.088-2.912,1.5s-1.147.574-.971,1.59v6.531A1.3,1.3,0,0,0,24,34.484a1.326,1.326,0,0,0,1.325-1.323V27.955l4.987-2.782a1.928,1.928,0,0,0,.973-1.679A1.832,1.832,0,0,0,30.8,22.171Z" transform="translate(-15.472 -16.691)"/></g></g><g transform="translate(1167 980.111)"><path class="a" d="M18.39,8.146a2.309,2.309,0,0,1,2.294,2.3,2.317,2.317,0,1,1-4.633,0A2.319,2.319,0,0,1,18.39,8.146Z" transform="translate(-6.555)"/><path class="a" d="M10.149,29.845,11.3,27.99a.743.743,0,0,0-1.261-.784L8.9,29.039a6.2,6.2,0,1,0,1.248.806ZM6.172,39.4A4.8,4.8,0,1,1,8.16,30.231l-2.5,4.021a.742.742,0,1,0,1.261.783L9.4,31.053A4.778,4.778,0,0,1,6.172,39.4Z" transform="translate(0 -7.641)"/><path class="a" d="M35.585,29.375a6.194,6.194,0,1,0,6.172,6.173A6.2,6.2,0,0,0,35.585,29.375Zm0,10.995a4.8,4.8,0,1,1,4.784-4.822A4.832,4.832,0,0,1,35.585,40.37Z" transform="translate(-11.994 -8.67)"/><path class="a" d="M36.013,14.283a1.059,1.059,0,0,1,.014,1.505L35.041,16.8a1.063,1.063,0,0,1-1.5.017L30.1,13.451a1.067,1.067,0,0,1-.014-1.507l.988-1.006a1.066,1.066,0,0,1,1.506-.018Z" transform="translate(-12.164 -1.009)"/><g transform="translate(6.218 11.671)"><path class="a" d="M23.335,17.107l-2.4-2.376a1.792,1.792,0,0,0-1.456-.618,2.1,2.1,0,0,0-1.544.927L15.376,19.01H11.537a.913.913,0,1,0,0,1.811h4.458a1.164,1.164,0,0,0,.97-.574l1.5-2.383.5-.757Z" transform="translate(-10.511 -14.105)"/><path class="a" d="M30.8,22.171l-1.748-1.733-5.619.012,3.132,3.088-2.912,1.5s-1.147.574-.971,1.59v6.531A1.3,1.3,0,0,0,24,34.484a1.326,1.326,0,0,0,1.325-1.323V27.955l4.987-2.782a1.928,1.928,0,0,0,.973-1.679A1.832,1.832,0,0,0,30.8,22.171Z" transform="translate(-15.472 -16.691)"/></g></g><g transform="translate(824.759 979.483) rotate(1)"><path class="a" d="M18.344,8.146a2.309,2.309,0,0,0-2.294,2.3,2.317,2.317,0,1,0,4.633,0A2.319,2.319,0,0,0,18.344,8.146Z" transform="translate(-0.418)"/><path class="a" d="M2.239,29.845,1.086,27.99a.743.743,0,0,1,1.261-.784l1.139,1.833a6.2,6.2,0,1,1-1.248.806ZM6.216,39.4a4.8,4.8,0,1,0-1.988-9.168l2.5,4.021a.742.742,0,1,1-1.261.783L2.991,31.053A4.778,4.778,0,0,0,6.216,39.4Z" transform="translate(17.372 -7.641)"/><path class="a" d="M35.541,29.375a6.194,6.194,0,1,1-6.172,6.173A6.2,6.2,0,0,1,35.541,29.375Zm0,10.995a4.8,4.8,0,1,0-4.784-4.822A4.832,4.832,0,0,0,35.541,40.37Z" transform="translate(-29.369 -8.67)"/><path class="a" d="M30.106,14.283a1.059,1.059,0,0,0-.014,1.505l.986,1.007a1.063,1.063,0,0,0,1.5.017l3.432-3.361a1.067,1.067,0,0,0,.014-1.507l-.988-1.006a1.066,1.066,0,0,0-1.506-.018Z" transform="translate(-24.192 -1.009)"/><g transform="translate(7.73 11.671)"><path class="a" d="M10.511,17.107l2.4-2.376a1.792,1.792,0,0,1,1.456-.618,2.1,2.1,0,0,1,1.544.927L18.47,19.01h3.839a.913.913,0,1,1,0,1.811H17.852a1.164,1.164,0,0,1-.97-.574l-1.5-2.383-.5-.757Z" transform="translate(-7.522 -14.105)"/><path class="a" d="M23.148,22.171,24.9,20.438l5.619.012-3.132,3.088,2.912,1.5s1.147.574.971,1.59v6.531a1.3,1.3,0,0,1-1.323,1.323,1.326,1.326,0,0,1-1.325-1.323V27.955l-4.987-2.782a1.928,1.928,0,0,1-.973-1.679A1.832,1.832,0,0,1,23.148,22.171Z" transform="translate(-22.659 -16.691)"/></g></g><g transform="translate(789.759 979.483) rotate(1)"><path class="a" d="M18.344,8.146a2.309,2.309,0,0,0-2.294,2.3,2.317,2.317,0,1,0,4.633,0A2.319,2.319,0,0,0,18.344,8.146Z" transform="translate(-0.418)"/><path class="a" d="M2.239,29.845,1.086,27.99a.743.743,0,0,1,1.261-.784l1.139,1.833a6.2,6.2,0,1,1-1.248.806ZM6.216,39.4a4.8,4.8,0,1,0-1.988-9.168l2.5,4.021a.742.742,0,1,1-1.261.783L2.991,31.053A4.778,4.778,0,0,0,6.216,39.4Z" transform="translate(17.372 -7.641)"/><path class="a" d="M35.541,29.375a6.194,6.194,0,1,1-6.172,6.173A6.2,6.2,0,0,1,35.541,29.375Zm0,10.995a4.8,4.8,0,1,0-4.784-4.822A4.832,4.832,0,0,0,35.541,40.37Z" transform="translate(-29.369 -8.67)"/><path class="a" d="M30.106,14.283a1.059,1.059,0,0,0-.014,1.505l.986,1.007a1.063,1.063,0,0,0,1.5.017l3.432-3.361a1.067,1.067,0,0,0,.014-1.507l-.988-1.006a1.066,1.066,0,0,0-1.506-.018Z" transform="translate(-24.192 -1.009)"/><g transform="translate(7.73 11.671)"><path class="a" d="M10.511,17.107l2.4-2.376a1.792,1.792,0,0,1,1.456-.618,2.1,2.1,0,0,1,1.544.927L18.47,19.01h3.839a.913.913,0,1,1,0,1.811H17.852a1.164,1.164,0,0,1-.97-.574l-1.5-2.383-.5-.757Z" transform="translate(-7.522 -14.105)"/><path class="a" d="M23.148,22.171,24.9,20.438l5.619.012-3.132,3.088,2.912,1.5s1.147.574.971,1.59v6.531a1.3,1.3,0,0,1-1.323,1.323,1.326,1.326,0,0,1-1.325-1.323V27.955l-4.987-2.782a1.928,1.928,0,0,1-.973-1.679A1.832,1.832,0,0,1,23.148,22.171Z" transform="translate(-22.659 -16.691)"/></g></g><g transform="translate(1324.422 956.797)"><path class="a" d="M52.138,17.854H31.405V6.065A4.077,4.077,0,0,0,27.34,2H6.065A4.077,4.077,0,0,0,2,6.065V52.138A3.993,3.993,0,0,0,6.065,56.2H52.138A3.993,3.993,0,0,0,56.2,52.138V21.92A3.993,3.993,0,0,0,52.138,17.854Zm-41.6,35.639V45.769a1.358,1.358,0,0,1,1.355-1.355H15.28v9.079Zm12.2,0H17.99V44.414h3.388a1.358,1.358,0,0,1,1.355,1.355Zm5.962,0H25.578V45.769A3.993,3.993,0,0,0,21.513,41.7H12.028a3.993,3.993,0,0,0-4.065,4.065v7.724h-1.9A1.358,1.358,0,0,1,4.71,52.138V6.065A1.358,1.358,0,0,1,6.065,4.71H27.34A1.358,1.358,0,0,1,28.7,6.065Zm24.8-1.355a1.358,1.358,0,0,1-1.355,1.355H31.405V20.565H52.138a1.457,1.457,0,0,1,1.355,1.355Z"/><g transform="translate(7.827 8.504)"><path class="a" d="M22.561,9.51H7.655A1.28,1.28,0,0,1,6.3,8.155,1.28,1.28,0,0,1,7.655,6.8H22.561a1.28,1.28,0,0,1,1.355,1.355A1.28,1.28,0,0,1,22.561,9.51Z" transform="translate(-6.3 -6.8)"/></g><g transform="translate(7.827 15.28)"><path class="a" d="M22.561,14.51H7.655A1.28,1.28,0,0,1,6.3,13.155,1.28,1.28,0,0,1,7.655,11.8H22.561a1.28,1.28,0,0,1,1.355,1.355A1.28,1.28,0,0,1,22.561,14.51Z" transform="translate(-6.3 -11.8)"/></g><g transform="translate(7.827 22.055)"><path class="a" d="M22.561,19.51H7.655a1.355,1.355,0,1,1,0-2.71H22.561a1.355,1.355,0,1,1,0,2.71Z" transform="translate(-6.3 -16.8)"/></g><g transform="translate(7.827 28.831)"><path class="a" d="M22.561,24.51H7.655a1.355,1.355,0,1,1,0-2.71H22.561a1.355,1.355,0,1,1,0,2.71Z" transform="translate(-6.3 -21.8)"/></g><g transform="translate(33.573 24.765)"><path class="a" d="M41.561,21.51H26.655a1.355,1.355,0,0,1,0-2.71H41.561a1.355,1.355,0,0,1,0,2.71Z" transform="translate(-25.3 -18.8)"/></g><g transform="translate(33.573 31.541)"><path class="a" d="M41.561,26.51H26.655a1.355,1.355,0,0,1,0-2.71H41.561a1.355,1.355,0,0,1,0,2.71Z" transform="translate(-25.3 -23.8)"/></g><g transform="translate(33.573 38.316)"><path class="a" d="M41.561,31.51H26.655a1.355,1.355,0,0,1,0-2.71H41.561a1.355,1.355,0,0,1,0,2.71Z" transform="translate(-25.3 -28.8)"/></g></g><g transform="translate(395.352 940.083)"><rect class="a" width="9.456" height="2.364" transform="translate(6.728 30.367)"/><rect class="a" width="9.456" height="2.364" transform="translate(6.728 35.095)"/><rect class="a" width="9.456" height="2.364" transform="translate(6.728 39.823)"/><rect class="a" width="9.456" height="2.364" transform="translate(6.728 44.55)"/><rect class="a" width="9.456" height="2.364" transform="translate(6.728 49.278)"/><rect class="a" width="9.456" height="2.364" transform="translate(6.728 54.006)"/><rect class="a" width="9.456" height="2.364" transform="translate(6.728 58.734)"/><rect class="a" width="3.546" height="2.364" transform="translate(22.093 11.456)"/><rect class="a" width="3.546" height="2.364" transform="translate(28.003 11.456)"/><rect class="a" width="3.546" height="2.364" transform="translate(22.093 16.183)"/><rect class="a" width="3.546" height="2.364" transform="translate(28.003 16.183)"/><rect class="a" width="3.546" height="2.364" transform="translate(22.093 20.911)"/><rect class="a" width="3.546" height="2.364" transform="translate(28.003 20.911)"/><rect class="a" width="3.546" height="2.364" transform="translate(22.093 25.639)"/><rect class="a" width="3.546" height="2.364" transform="translate(28.003 25.639)"/><rect class="a" width="3.546" height="2.364" transform="translate(22.093 30.367)"/><rect class="a" width="3.546" height="2.364" transform="translate(28.003 30.367)"/><rect class="a" width="3.546" height="2.364" transform="translate(22.093 35.095)"/><rect class="a" width="3.546" height="2.364" transform="translate(28.003 35.095)"/><rect class="a" width="3.546" height="2.364" transform="translate(22.093 39.823)"/><rect class="a" width="3.546" height="2.364" transform="translate(28.003 39.823)"/><rect class="a" width="3.546" height="2.364" transform="translate(22.093 44.55)"/><rect class="a" width="3.546" height="2.364" transform="translate(28.003 44.55)"/><rect class="a" width="3.546" height="2.364" transform="translate(22.093 49.278)"/><rect class="a" width="3.546" height="2.364" transform="translate(28.003 49.278)"/><rect class="a" width="3.546" height="2.364" transform="translate(22.093 54.006)"/><rect class="a" width="3.546" height="2.364" transform="translate(28.003 54.006)"/><rect class="a" width="3.546" height="2.364" transform="translate(22.093 58.734)"/><rect class="a" width="3.546" height="2.364" transform="translate(28.003 58.734)"/><rect class="a" width="3.546" height="2.364" transform="translate(38.641 39.823)"/><rect class="a" width="3.546" height="2.364" transform="translate(44.55 39.823)"/><rect class="a" width="3.546" height="2.364" transform="translate(38.641 44.55)"/><rect class="a" width="3.546" height="2.364" transform="translate(44.55 44.55)"/><rect class="a" width="3.546" height="2.364" transform="translate(38.641 49.278)"/><rect class="a" width="3.546" height="2.364" transform="translate(44.55 49.278)"/><rect class="a" width="3.546" height="2.364" transform="translate(38.641 54.006)"/><rect class="a" width="3.546" height="2.364" transform="translate(44.55 54.006)"/><rect class="a" width="3.546" height="2.364" transform="translate(38.641 58.734)"/><rect class="a" width="3.546" height="2.364" transform="translate(44.55 58.734)"/><path class="a" d="M68.19,20.911V16.183H59.916V9.092H57.552v7.092H49.278v4.728H44.55V35.095H36.277V6.728H28V2H25.639V6.728H17.365V20.911H12.638V16.183H10.274v4.728H4.364v4.728H2V72.917H72.917V20.911ZM51.642,18.547H65.826v2.364H51.642ZM6.728,23.275h9.456v2.364H6.728Zm3.546,47.278V65.826h2.364v4.728Zm8.274,0H15V63.462H7.91v7.092H4.364V28H18.547Zm7.092,0V65.826H28v4.728Zm8.274,0H30.367V63.462H23.275v7.092H20.911V25.639H19.729V9.092H33.913Zm8.274,0V65.826H44.55v4.728Zm8.274,0H46.914V63.462H39.823v7.092H36.277V37.459H50.46Zm7.092,0V65.826h2.364v4.728Zm13,0H62.28V63.462H55.188v7.092H52.824V61.1H68.19V58.734H52.824V56.37H68.19V54.006H52.824V51.642H68.19V49.278H52.824V46.914H68.19V44.55H52.824V42.187H68.19V39.823H52.824V37.459H68.19V35.095H46.914V23.275H70.554Z"/><rect class="a" width="18.911" height="2.364" transform="translate(49.278 25.639)"/><rect class="a" width="18.911" height="2.364" transform="translate(49.278 30.367)"/></g><g transform="translate(1230.352 940.083)"><rect class="a" width="9.456" height="2.364" transform="translate(6.728 30.367)"/><rect class="a" width="9.456" height="2.364" transform="translate(6.728 35.095)"/><rect class="a" width="9.456" height="2.364" transform="translate(6.728 39.823)"/><rect class="a" width="9.456" height="2.364" transform="translate(6.728 44.55)"/><rect class="a" width="9.456" height="2.364" transform="translate(6.728 49.278)"/><rect class="a" width="9.456" height="2.364" transform="translate(6.728 54.006)"/><rect class="a" width="9.456" height="2.364" transform="translate(6.728 58.734)"/><rect class="a" width="3.546" height="2.364" transform="translate(22.093 11.456)"/><rect class="a" width="3.546" height="2.364" transform="translate(28.003 11.456)"/><rect class="a" width="3.546" height="2.364" transform="translate(22.093 16.183)"/><rect class="a" width="3.546" height="2.364" transform="translate(28.003 16.183)"/><rect class="a" width="3.546" height="2.364" transform="translate(22.093 20.911)"/><rect class="a" width="3.546" height="2.364" transform="translate(28.003 20.911)"/><rect class="a" width="3.546" height="2.364" transform="translate(22.093 25.639)"/><rect class="a" width="3.546" height="2.364" transform="translate(28.003 25.639)"/><rect class="a" width="3.546" height="2.364" transform="translate(22.093 30.367)"/><rect class="a" width="3.546" height="2.364" transform="translate(28.003 30.367)"/><rect class="a" width="3.546" height="2.364" transform="translate(22.093 35.095)"/><rect class="a" width="3.546" height="2.364" transform="translate(28.003 35.095)"/><rect class="a" width="3.546" height="2.364" transform="translate(22.093 39.823)"/><rect class="a" width="3.546" height="2.364" transform="translate(28.003 39.823)"/><rect class="a" width="3.546" height="2.364" transform="translate(22.093 44.55)"/><rect class="a" width="3.546" height="2.364" transform="translate(28.003 44.55)"/><rect class="a" width="3.546" height="2.364" transform="translate(22.093 49.278)"/><rect class="a" width="3.546" height="2.364" transform="translate(28.003 49.278)"/><rect class="a" width="3.546" height="2.364" transform="translate(22.093 54.006)"/><rect class="a" width="3.546" height="2.364" transform="translate(28.003 54.006)"/><rect class="a" width="3.546" height="2.364" transform="translate(22.093 58.734)"/><rect class="a" width="3.546" height="2.364" transform="translate(28.003 58.734)"/><rect class="a" width="3.546" height="2.364" transform="translate(38.641 39.823)"/><rect class="a" width="3.546" height="2.364" transform="translate(44.55 39.823)"/><rect class="a" width="3.546" height="2.364" transform="translate(38.641 44.55)"/><rect class="a" width="3.546" height="2.364" transform="translate(44.55 44.55)"/><rect class="a" width="3.546" height="2.364" transform="translate(38.641 49.278)"/><rect class="a" width="3.546" height="2.364" transform="translate(44.55 49.278)"/><rect class="a" width="3.546" height="2.364" transform="translate(38.641 54.006)"/><rect class="a" width="3.546" height="2.364" transform="translate(44.55 54.006)"/><rect class="a" width="3.546" height="2.364" transform="translate(38.641 58.734)"/><rect class="a" width="3.546" height="2.364" transform="translate(44.55 58.734)"/><path class="a" d="M68.19,20.911V16.183H59.916V9.092H57.552v7.092H49.278v4.728H44.55V35.095H36.277V6.728H28V2H25.639V6.728H17.365V20.911H12.638V16.183H10.274v4.728H4.364v4.728H2V72.917H72.917V20.911ZM51.642,18.547H65.826v2.364H51.642ZM6.728,23.275h9.456v2.364H6.728Zm3.546,47.278V65.826h2.364v4.728Zm8.274,0H15V63.462H7.91v7.092H4.364V28H18.547Zm7.092,0V65.826H28v4.728Zm8.274,0H30.367V63.462H23.275v7.092H20.911V25.639H19.729V9.092H33.913Zm8.274,0V65.826H44.55v4.728Zm8.274,0H46.914V63.462H39.823v7.092H36.277V37.459H50.46Zm7.092,0V65.826h2.364v4.728Zm13,0H62.28V63.462H55.188v7.092H52.824V61.1H68.19V58.734H52.824V56.37H68.19V54.006H52.824V51.642H68.19V49.278H52.824V46.914H68.19V44.55H52.824V42.187H68.19V39.823H52.824V37.459H68.19V35.095H46.914V23.275H70.554Z"/><rect class="a" width="18.911" height="2.364" transform="translate(49.278 25.639)"/><rect class="a" width="18.911" height="2.364" transform="translate(49.278 30.367)"/></g><path class="b" d="M0,0H1200V67H0V0Z" transform="translate(360 1013)"/></g></svg>