<svg xmlns="http://www.w3.org/2000/svg" viewBox="0 0 967.99 569.076"><defs><style>.a{fill:#30febe;}.b{fill:#fecd1a;}</style></defs><g transform="translate(-405 -288.519)"><path class="a" d="M58.828,104.4c50.964,35.3,5.242,82.184,145.027,76.809,59.162,2.76,79.922,127.713,158.395,120.984,119.218-10.223,113.249,5.408,155.7,74.344,31.3,50.829,113.133,64.414,166.547,91.445,125.68,63.6,169.287,0,198.52,0S967.99,529.6,967.99,529.6s-78.078-.6-110.568-.6l-811.937.6C12.995,529.6,0,511.091,0,489V-36.937C0-59.029,7.864,69.1,58.828,104.4Z" transform="translate(405 328)"/><g transform="translate(756 599.111)"><path class="b" d="M18.39,8.146a2.309,2.309,0,0,1,2.294,2.3,2.317,2.317,0,1,1-4.633,0A2.319,2.319,0,0,1,18.39,8.146Z" transform="translate(-6.555)"/><path class="b" d="M10.149,29.845,11.3,27.99a.743.743,0,0,0-1.261-.784L8.9,29.039a6.2,6.2,0,1,0,1.248.806ZM6.172,39.4A4.8,4.8,0,1,1,8.16,30.231l-2.5,4.021a.742.742,0,1,0,1.261.783L9.4,31.053A4.778,4.778,0,0,1,6.172,39.4Z" transform="translate(0 -7.641)"/><path class="b" d="M35.585,29.375a6.194,6.194,0,1,0,6.172,6.173A6.2,6.2,0,0,0,35.585,29.375Zm0,10.995a4.8,4.8,0,1,1,4.784-4.822A4.832,4.832,0,0,1,35.585,40.37Z" transform="translate(-11.994 -8.67)"/><path class="b" d="M36.013,14.283a1.059,1.059,0,0,1,.014,1.505L35.041,16.8a1.063,1.063,0,0,1-1.5.017L30.1,13.451a1.067,1.067,0,0,1-.014-1.507l.988-1.006a1.066,1.066,0,0,1,1.506-.018Z" transform="translate(-12.164 -1.009)"/><g transform="translate(6.218 11.671)"><path class="b" d="M23.335,17.107l-2.4-2.376a1.792,1.792,0,0,0-1.456-.618,2.1,2.1,0,0,0-1.544.927L15.376,19.01H11.537a.913.913,0,1,0,0,1.811h4.458a1.164,1.164,0,0,0,.97-.574l1.5-2.383.5-.757Z" transform="translate(-10.511 -14.105)"/><path class="b" d="M30.8,22.171l-1.748-1.733-5.619.012,3.132,3.088-2.912,1.5s-1.147.574-.971,1.59v6.531A1.3,1.3,0,0,0,24,34.484a1.326,1.326,0,0,0,1.325-1.323V27.955l4.987-2.782a1.928,1.928,0,0,0,.973-1.679A1.832,1.832,0,0,0,30.8,22.171Z" transform="translate(-15.472 -16.691)"/></g></g><g transform="matrix(0.921, 0.391, -0.391, 0.921, 1063.25, 751.937)"><path class="b" d="M18.39,8.146a2.309,2.309,0,0,1,2.294,2.3,2.317,2.317,0,1,1-4.633,0A2.319,2.319,0,0,1,18.39,8.146Z" transform="translate(-6.555)"/><path class="b" d="M10.149,29.845,11.3,27.99a.743.743,0,0,0-1.261-.784L8.9,29.039a6.2,6.2,0,1,0,1.248.806ZM6.172,39.4A4.8,4.8,0,1,1,8.16,30.231l-2.5,4.021a.742.742,0,1,0,1.261.783L9.4,31.053A4.778,4.778,0,0,1,6.172,39.4Z" transform="translate(0 -7.641)"/><path class="b" d="M35.585,29.375a6.194,6.194,0,1,0,6.172,6.173A6.2,6.2,0,0,0,35.585,29.375Zm0,10.995a4.8,4.8,0,1,1,4.784-4.822A4.832,4.832,0,0,1,35.585,40.37Z" transform="translate(-11.994 -8.67)"/><path class="b" d="M36.013,14.283a1.059,1.059,0,0,1,.014,1.505L35.041,16.8a1.063,1.063,0,0,1-1.5.017L30.1,13.451a1.067,1.067,0,0,1-.014-1.507l.988-1.006a1.066,1.066,0,0,1,1.506-.018Z" transform="translate(-12.164 -1.009)"/><g transform="translate(6.218 11.671)"><path class="b" d="M23.335,17.107l-2.4-2.376a1.792,1.792,0,0,0-1.456-.618,2.1,2.1,0,0,0-1.544.927L15.376,19.01H11.537a.913.913,0,1,0,0,1.811h4.458a1.164,1.164,0,0,0,.97-.574l1.5-2.383.5-.757Z" transform="translate(-10.511 -14.105)"/><path class="b" d="M30.8,22.171l-1.748-1.733-5.619.012,3.132,3.088-2.912,1.5s-1.147.574-.971,1.59v6.531A1.3,1.3,0,0,0,24,34.484a1.326,1.326,0,0,0,1.325-1.323V27.955l4.987-2.782a1.928,1.928,0,0,0,.973-1.679A1.832,1.832,0,0,0,30.8,22.171Z" transform="translate(-15.472 -16.691)"/></g></g><g transform="matrix(0.921, 0.391, -0.391, 0.921, 863.646, 599.566)"><path class="b" d="M18.344,8.146a2.309,2.309,0,0,0-2.294,2.3,2.317,2.317,0,1,0,4.633,0A2.319,2.319,0,0,0,18.344,8.146Z" transform="translate(-0.418)"/><path class="b" d="M2.239,29.845,1.086,27.99a.743.743,0,0,1,1.261-.784l1.139,1.833a6.2,6.2,0,1,1-1.248.806ZM6.216,39.4a4.8,4.8,0,1,0-1.988-9.168l2.5,4.021a.742.742,0,1,1-1.261.783L2.991,31.053A4.778,4.778,0,0,0,6.216,39.4Z" transform="translate(17.372 -7.641)"/><path class="b" d="M35.541,29.375a6.194,6.194,0,1,1-6.172,6.173A6.2,6.2,0,0,1,35.541,29.375Zm0,10.995a4.8,4.8,0,1,0-4.784-4.822A4.832,4.832,0,0,0,35.541,40.37Z" transform="translate(-29.369 -8.67)"/><path class="b" d="M30.106,14.283a1.059,1.059,0,0,0-.014,1.505l.986,1.007a1.063,1.063,0,0,0,1.5.017l3.432-3.361a1.067,1.067,0,0,0,.014-1.507l-.988-1.006a1.066,1.066,0,0,0-1.506-.018Z" transform="translate(-24.192 -1.009)"/><g transform="translate(7.73 11.671)"><path class="b" d="M10.511,17.107l2.4-2.376a1.792,1.792,0,0,1,1.456-.618,2.1,2.1,0,0,1,1.544.927L18.47,19.01h3.839a.913.913,0,1,1,0,1.811H17.852a1.164,1.164,0,0,1-.97-.574l-1.5-2.383-.5-.757Z" transform="translate(-7.522 -14.105)"/><path class="b" d="M23.148,22.171,24.9,20.438l5.619.012-3.132,3.088,2.912,1.5s1.147.574.971,1.59v6.531a1.3,1.3,0,0,1-1.323,1.323,1.326,1.326,0,0,1-1.325-1.323V27.955l-4.987-2.782a1.928,1.928,0,0,1-.973-1.679A1.832,1.832,0,0,1,23.148,22.171Z" transform="translate(-22.659 -16.691)"/></g></g><g transform="translate(1155.422 768.826)"><path class="b" d="M52.111,17.846H31.389V6.063A4.075,4.075,0,0,0,27.326,2H6.063A4.075,4.075,0,0,0,2,6.063V52.111a3.991,3.991,0,0,0,4.063,4.063H52.111a3.991,3.991,0,0,0,4.063-4.063v-30.2A3.991,3.991,0,0,0,52.111,17.846ZM10.532,53.465v-7.72a1.357,1.357,0,0,1,1.354-1.354h3.386v9.074Zm12.189,0h-4.74V44.391h3.386a1.357,1.357,0,0,1,1.354,1.354Zm5.959,0H25.566v-7.72A3.991,3.991,0,0,0,21.5,41.682h-9.48a3.991,3.991,0,0,0-4.063,4.063v7.72h-1.9a1.357,1.357,0,0,1-1.354-1.354V6.063A1.357,1.357,0,0,1,6.063,4.709H27.326a1.357,1.357,0,0,1,1.354,1.354Zm24.785-1.354a1.357,1.357,0,0,1-1.354,1.354H31.389V20.555H52.111a1.456,1.456,0,0,1,1.354,1.354Z"/><g transform="translate(7.824 8.501)"><path class="b" d="M22.552,9.509H7.654A1.28,1.28,0,0,1,6.3,8.154,1.28,1.28,0,0,1,7.654,6.8h14.9a1.28,1.28,0,0,1,1.354,1.354A1.28,1.28,0,0,1,22.552,9.509Z" transform="translate(-6.3 -6.8)"/></g><g transform="translate(7.824 15.273)"><path class="b" d="M22.552,14.509H7.654A1.28,1.28,0,0,1,6.3,13.154,1.28,1.28,0,0,1,7.654,11.8h14.9a1.28,1.28,0,0,1,1.354,1.354A1.28,1.28,0,0,1,22.552,14.509Z" transform="translate(-6.3 -11.8)"/></g><g transform="translate(7.824 22.044)"><path class="b" d="M22.552,19.509H7.654a1.354,1.354,0,1,1,0-2.709h14.9a1.354,1.354,0,1,1,0,2.709Z" transform="translate(-6.3 -16.8)"/></g><g transform="translate(7.824 28.816)"><path class="b" d="M22.552,24.509H7.654a1.354,1.354,0,1,1,0-2.709h14.9a1.354,1.354,0,1,1,0,2.709Z" transform="translate(-6.3 -21.8)"/></g><g transform="translate(33.556 24.753)"><path class="b" d="M41.552,21.509h-14.9a1.354,1.354,0,0,1,0-2.709h14.9a1.354,1.354,0,1,1,0,2.709Z" transform="translate(-25.3 -18.8)"/></g><g transform="translate(33.556 31.525)"><path class="b" d="M41.552,26.509h-14.9a1.354,1.354,0,0,1,0-2.709h14.9a1.354,1.354,0,1,1,0,2.709Z" transform="translate(-25.3 -23.8)"/></g><g transform="translate(33.556 38.297)"><path class="b" d="M41.552,31.509h-14.9a1.354,1.354,0,0,1,0-2.709h14.9a1.354,1.354,0,1,1,0,2.709Z" transform="translate(-25.3 -28.8)"/></g></g><g transform="translate(535.352 438.083)"><rect class="b" width="9.456" height="2.364" transform="translate(6.728 30.367)"/><rect class="b" width="9.456" height="2.364" transform="translate(6.728 35.095)"/><rect class="b" width="9.456" height="2.364" transform="translate(6.728 39.823)"/><rect class="b" width="9.456" height="2.364" transform="translate(6.728 44.55)"/><rect class="b" width="9.456" height="2.364" transform="translate(6.728 49.278)"/><rect class="b" width="9.456" height="2.364" transform="translate(6.728 54.006)"/><rect class="b" width="9.456" height="2.364" transform="translate(6.728 58.734)"/><rect class="b" width="3.546" height="2.364" transform="translate(22.093 11.456)"/><rect class="b" width="3.546" height="2.364" transform="translate(28.003 11.456)"/><rect class="b" width="3.546" height="2.364" transform="translate(22.093 16.183)"/><rect class="b" width="3.546" height="2.364" transform="translate(28.003 16.183)"/><rect class="b" width="3.546" height="2.364" transform="translate(22.093 20.911)"/><rect class="b" width="3.546" height="2.364" transform="translate(28.003 20.911)"/><rect class="b" width="3.546" height="2.364" transform="translate(22.093 25.639)"/><rect class="b" width="3.546" height="2.364" transform="translate(28.003 25.639)"/><rect class="b" width="3.546" height="2.364" transform="translate(22.093 30.367)"/><rect class="b" width="3.546" height="2.364" transform="translate(28.003 30.367)"/><rect class="b" width="3.546" height="2.364" transform="translate(22.093 35.095)"/><rect class="b" width="3.546" height="2.364" transform="translate(28.003 35.095)"/><rect class="b" width="3.546" height="2.364" transform="translate(22.093 39.823)"/><rect class="b" width="3.546" height="2.364" transform="translate(28.003 39.823)"/><rect class="b" width="3.546" height="2.364" transform="translate(22.093 44.55)"/><rect class="b" width="3.546" height="2.364" transform="translate(28.003 44.55)"/><rect class="b" width="3.546" height="2.364" transform="translate(22.093 49.278)"/><rect class="b" width="3.546" height="2.364" transform="translate(28.003 49.278)"/><rect class="b" width="3.546" height="2.364" transform="translate(22.093 54.006)"/><rect class="b" width="3.546" height="2.364" transform="translate(28.003 54.006)"/><rect class="b" width="3.546" height="2.364" transform="translate(22.093 58.734)"/><rect class="b" width="3.546" height="2.364" transform="translate(28.003 58.734)"/><rect class="b" width="3.546" height="2.364" transform="translate(38.641 39.823)"/><rect class="b" width="3.546" height="2.364" transform="translate(44.55 39.823)"/><rect class="b" width="3.546" height="2.364" transform="translate(38.641 44.55)"/><rect class="b" width="3.546" height="2.364" transform="translate(44.55 44.55)"/><rect class="b" width="3.546" height="2.364" transform="translate(38.641 49.278)"/><rect class="b" width="3.546" height="2.364" transform="translate(44.55 49.278)"/><rect class="b" width="3.546" height="2.364" transform="translate(38.641 54.006)"/><rect class="b" width="3.546" height="2.364" transform="translate(44.55 54.006)"/><rect class="b" width="3.546" height="2.364" transform="translate(38.641 58.734)"/><rect class="b" width="3.546" height="2.364" transform="translate(44.55 58.734)"/><path class="b" d="M68.19,20.911V16.183H59.916V9.092H57.552v7.092H49.278v4.728H44.55V35.095H36.277V6.728H28V2H25.639V6.728H17.365V20.911H12.638V16.183H10.274v4.728H4.364v4.728H2V72.917H72.917V20.911ZM51.642,18.547H65.826v2.364H51.642ZM6.728,23.275h9.456v2.364H6.728Zm3.546,47.278V65.826h2.364v4.728Zm8.274,0H15V63.462H7.91v7.092H4.364V28H18.547Zm7.092,0V65.826H28v4.728Zm8.274,0H30.367V63.462H23.275v7.092H20.911V25.639H19.729V9.092H33.913Zm8.274,0V65.826H44.55v4.728Zm8.274,0H46.914V63.462H39.823v7.092H36.277V37.459H50.46Zm7.092,0V65.826h2.364v4.728Zm13,0H62.28V63.462H55.188v7.092H52.824V61.1H68.19V58.734H52.824V56.37H68.19V54.006H52.824V51.642H68.19V49.278H52.824V46.914H68.19V44.55H52.824V42.187H68.19V39.823H52.824V37.459H68.19V35.095H46.914V23.275H70.554Z"/><rect class="b" width="18.911" height="2.364" transform="translate(49.278 25.639)"/><rect class="b" width="18.911" height="2.364" transform="translate(49.278 30.367)"/></g></g></svg>